<svg xmlns="http://www.w3.org/2000/svg" xmlns:xlink="http://www.w3.org/1999/xlink" height="272" width="272" fill="#ffffff" x="0px" y="0px" viewBox="0 0 100 100" xml:space="preserve"><path d="M45.163,33.533c-0.033-0.437-0.174-0.525-0.589-0.424c-1.573,0.384-3.146,0.768-4.718,1.158  c-0.505,0.125-0.904,0.389-1.138,0.882c-0.164,0.345-0.371,0.669-0.557,1.004c-0.264,0.476-0.078,0.785,0.477,0.787  c0.933,0.004,1.865,0.001,2.798,0.001c0.958,0,1.917,0.004,2.875-0.002c0.501-0.003,0.815-0.303,0.834-0.802  c0.019-0.485,0.018-0.97,0.022-1.455C45.171,34.298,45.192,33.913,45.163,33.533z M40.443,36.634  c-0.63-0.011-1.123-0.523-1.117-1.161c0.006-0.63,0.521-1.14,1.147-1.135c0.618,0.004,1.145,0.531,1.149,1.146  C41.626,36.116,41.083,36.645,40.443,36.634z M42.946,35.407c-0.392,0.021-0.72-0.283-0.728-0.675  c-0.008-0.387,0.272-0.689,0.654-0.708c0.392-0.019,0.725,0.284,0.737,0.672C43.621,35.061,43.318,35.386,42.946,35.407z   M19.436,36.102c-0.181-0.323-0.378-0.637-0.539-0.97c-0.237-0.491-0.641-0.745-1.146-0.87c-1.572-0.388-3.144-0.772-4.717-1.157  c-0.385-0.094-0.499-0.022-0.568,0.37c-0.022,0.125-0.029,0.254-0.027,0.381c0.009,0.728,0.022,1.455,0.036,2.183  c0.012,0.614,0.307,0.899,0.932,0.9c0.907,0.002,1.814,0,2.721,0c0.933,0,1.865,0.001,2.798,0  C19.56,36.939,19.739,36.643,19.436,36.102z M14.575,35.408c-0.387,0.004-0.718-0.323-0.712-0.703  c0.006-0.382,0.341-0.695,0.731-0.681c0.38,0.013,0.666,0.315,0.662,0.7C15.251,35.105,14.954,35.404,14.575,35.408z M16.99,36.634  c-0.625-0.008-1.148-0.543-1.137-1.162c0.012-0.622,0.549-1.142,1.17-1.134c0.633,0.009,1.133,0.528,1.125,1.167  C18.14,36.143,17.628,36.642,16.99,36.634z M13.616,28.015c1.161-2.302,2.317-4.608,3.526-6.885  c0.466-0.878,1.298-1.276,2.296-1.276c5.655-0.003,11.31-0.001,16.965-0.002c0.537,0,1.075-0.007,1.612,0.002  c1.088,0.018,1.916,0.488,2.431,1.456c1.157,2.176,2.307,4.355,3.457,6.534c0.071,0.135,0.143,0.273,0.187,0.418  c0.16,0.523-0.079,0.919-0.616,1.015c-0.175,0.031-0.356,0.036-0.534,0.036c-5.194,0.002-10.388,0.002-15.581,0.002v0h-1.504  c-0.369,0-0.739,0-1.108,0c-0.139,0-0.278,0-0.449,0c0,0,0,0,0,0h-6.468v-0.007c-1.152,0.013-2.304,0.021-3.455-0.005  C13.573,29.284,13.253,28.733,13.616,28.015z M39.777,42.572c0.006,0.138,0.017,0.273,0.017,0.408  c0.002,0.793-0.003,1.585,0.002,2.378c0.003,0.551,0.306,0.86,0.848,0.862c1.433,0.004,2.866,0.004,4.299,0  c0.521-0.002,0.832-0.313,0.836-0.836c0.006-1.036-0.006-2.071,0.01-3.107c0.002-0.16,0.077-0.343,0.175-0.472  c0.271-0.357,0.428-0.728,0.426-1.194c-0.014-2.979-0.02-5.958,0.001-8.937c0.006-0.846-0.141-1.648-0.428-2.434  c-0.042-0.116-0.074-0.237-0.111-0.359c0.756-0.097,1.489-0.165,2.213-0.289c0.949-0.163,1.492-1.06,1.233-1.975  c-0.093-0.329-0.48-0.619-0.877-0.643c-0.919-0.056-1.84-0.092-2.757-0.166c-0.427-0.034-0.786,0.04-1.074,0.438  c-0.303-0.561-0.588-1.084-0.869-1.609c-0.949-1.766-1.905-3.528-2.84-5.302c-0.282-0.535-0.686-0.78-1.289-0.78  c-7.19,0.005-14.38,0.004-21.57,0.002c-0.595,0-0.998,0.247-1.284,0.788c-1.192,2.258-2.41,4.501-3.638,6.787  c-0.491-0.53-1.1-0.294-1.665-0.286c-0.6,0.009-1.2,0.109-1.799,0.105c-0.574-0.004-0.979,0.208-1.239,0.711c0,0.23,0,0.46,0,0.69  c0.038,0.091,0.084,0.18,0.111,0.274c0.161,0.547,0.526,0.869,1.084,0.953c0.717,0.108,1.437,0.195,2.159,0.292  c-0.147,0.551-0.307,1.112-0.442,1.678c-0.05,0.208-0.061,0.43-0.061,0.645c-0.004,3.158,0.002,6.316-0.009,9.474  c-0.001,0.41,0.139,0.738,0.362,1.062c0.093,0.135,0.163,0.318,0.166,0.48c0.015,1.023,0.006,2.046,0.008,3.068  c0.001,0.661,0.277,0.942,0.923,0.943c1.382,0.001,2.763,0.002,4.145,0c0.629-0.001,0.913-0.283,0.915-0.912  c0.003-0.904,0.001-1.809,0.001-2.736 M19.085,37.24c-0.971,0.01-1.942,0.003-2.913,0.003c-0.933,0.001-1.866,0.002-2.798,0.001  c-0.738-0.001-1.179-0.418-1.197-1.143c-0.019-0.766-0.034-1.532-0.034-2.298c0-0.213,0.035-0.435,0.104-0.636  c0.132-0.379,0.343-0.475,0.744-0.378c1.611,0.391,3.222,0.781,4.831,1.179c0.596,0.147,1.07,0.456,1.348,1.034  c0.177,0.367,0.398,0.712,0.595,1.07C20.083,36.646,19.748,37.233,19.085,37.24z M45.444,36.133c-0.022,0.69-0.461,1.106-1.15,1.109  c-0.946,0.003-1.891,0.001-2.837,0.001c-0.946,0-1.891,0.002-2.837-0.001c-0.765-0.002-1.098-0.57-0.727-1.236  c0.186-0.334,0.397-0.657,0.561-1.001c0.276-0.58,0.75-0.89,1.346-1.037c1.609-0.398,3.22-0.788,4.831-1.179  c0.412-0.1,0.627,0.008,0.76,0.408c0.059,0.178,0.092,0.374,0.092,0.562C45.481,34.55,45.47,35.342,45.444,36.133z"></path><path d="M90.631,33.533c-0.033-0.437-0.174-0.525-0.589-0.424c-1.573,0.384-3.146,0.768-4.718,1.158  c-0.505,0.125-0.904,0.389-1.138,0.882c-0.164,0.345-0.371,0.669-0.557,1.004c-0.264,0.476-0.078,0.785,0.477,0.787  c0.933,0.004,1.865,0.001,2.798,0.001c0.958,0,1.917,0.004,2.875-0.002c0.501-0.003,0.815-0.303,0.834-0.802  c0.019-0.485,0.018-0.97,0.022-1.455C90.639,34.298,90.66,33.913,90.631,33.533z M85.911,36.634  c-0.63-0.011-1.123-0.523-1.117-1.161c0.006-0.63,0.521-1.14,1.147-1.135c0.618,0.004,1.145,0.531,1.149,1.146  C87.094,36.116,86.551,36.645,85.911,36.634z M88.414,35.407c-0.392,0.021-0.72-0.283-0.728-0.675  c-0.008-0.387,0.272-0.689,0.654-0.708c0.392-0.019,0.725,0.284,0.737,0.672C89.089,35.061,88.786,35.386,88.414,35.407z   M64.904,36.102c-0.181-0.323-0.378-0.637-0.539-0.97c-0.237-0.491-0.641-0.745-1.146-0.87c-1.572-0.388-3.144-0.772-4.717-1.157  c-0.385-0.094-0.499-0.022-0.568,0.37c-0.022,0.125-0.029,0.254-0.027,0.381c0.009,0.728,0.022,1.455,0.036,2.183  c0.012,0.614,0.307,0.899,0.932,0.9c0.907,0.002,1.814,0,2.721,0c0.933,0,1.865,0.001,2.798,0  C65.029,36.939,65.207,36.643,64.904,36.102z M60.043,35.408c-0.387,0.004-0.718-0.323-0.712-0.703  c0.006-0.382,0.341-0.695,0.731-0.681c0.38,0.013,0.666,0.315,0.662,0.7C60.72,35.105,60.423,35.404,60.043,35.408z M62.458,36.634  c-0.625-0.008-1.148-0.543-1.137-1.162c0.012-0.622,0.549-1.142,1.17-1.134c0.633,0.009,1.133,0.528,1.125,1.167  C63.608,36.143,63.096,36.642,62.458,36.634z M59.084,28.015c1.161-2.302,2.317-4.608,3.526-6.885  c0.466-0.878,1.298-1.276,2.296-1.276c5.655-0.003,11.31-0.001,16.965-0.002c0.537,0,1.075-0.007,1.612,0.002  c1.088,0.018,1.916,0.488,2.431,1.456c1.157,2.176,2.307,4.355,3.457,6.534c0.071,0.135,0.143,0.273,0.187,0.418  c0.16,0.523-0.079,0.919-0.616,1.015c-0.175,0.031-0.356,0.036-0.534,0.036c-5.194,0.002-10.388,0.002-15.581,0.002v0h-1.504  c-0.369,0-0.739,0-1.108,0c-0.139,0-0.278,0-0.449,0c0,0,0,0,0,0H63.3v-0.007c-1.152,0.013-2.304,0.021-3.455-0.005  C59.042,29.284,58.722,28.733,59.084,28.015z M85.245,42.572c0.006,0.138,0.017,0.273,0.017,0.408  c0.002,0.793-0.003,1.585,0.002,2.378c0.003,0.551,0.306,0.86,0.848,0.862c1.433,0.004,2.866,0.004,4.299,0  c0.521-0.002,0.832-0.313,0.836-0.836c0.006-1.036-0.006-2.071,0.01-3.107c0.002-0.16,0.077-0.343,0.175-0.472  c0.271-0.357,0.428-0.728,0.426-1.194c-0.014-2.979-0.02-5.958,0.001-8.937c0.006-0.846-0.141-1.648-0.428-2.434  c-0.042-0.116-0.074-0.237-0.111-0.359c0.756-0.097,1.489-0.165,2.213-0.289c0.949-0.163,1.492-1.06,1.233-1.975  c-0.093-0.329-0.48-0.619-0.877-0.643c-0.919-0.056-1.84-0.092-2.757-0.166c-0.427-0.034-0.786,0.04-1.074,0.438  c-0.303-0.561-0.588-1.084-0.869-1.609c-0.949-1.766-1.905-3.528-2.84-5.302c-0.282-0.535-0.686-0.78-1.289-0.78  c-7.19,0.005-14.38,0.004-21.57,0.002c-0.595,0-0.998,0.247-1.284,0.788c-1.192,2.258-2.41,4.501-3.638,6.787  c-0.491-0.53-1.1-0.294-1.665-0.286c-0.6,0.009-1.2,0.109-1.799,0.105c-0.574-0.004-0.979,0.208-1.239,0.711c0,0.23,0,0.46,0,0.69  c0.038,0.091,0.084,0.18,0.111,0.274c0.161,0.547,0.526,0.869,1.084,0.953c0.717,0.108,1.437,0.195,2.159,0.292  c-0.147,0.551-0.307,1.112-0.442,1.678c-0.05,0.208-0.061,0.43-0.061,0.645c-0.004,3.158,0.002,6.316-0.009,9.474  c-0.001,0.41,0.139,0.738,0.362,1.062c0.093,0.135,0.163,0.318,0.166,0.48c0.015,1.023,0.006,2.046,0.008,3.068  c0.001,0.661,0.277,0.942,0.923,0.943c1.382,0.001,2.763,0.002,4.145,0c0.629-0.001,0.913-0.283,0.915-0.912  c0.003-0.904,0.001-1.809,0.001-2.736 M64.554,37.24c-0.971,0.01-1.942,0.003-2.913,0.003c-0.933,0.001-1.866,0.002-2.798,0.001  c-0.738-0.001-1.179-0.418-1.197-1.143c-0.019-0.766-0.034-1.532-0.034-2.298c0-0.213,0.035-0.435,0.104-0.636  c0.132-0.379,0.343-0.475,0.744-0.378c1.611,0.391,3.222,0.781,4.831,1.179c0.596,0.147,1.07,0.456,1.348,1.034  c0.177,0.367,0.398,0.712,0.595,1.07C65.551,36.646,65.216,37.233,64.554,37.24z M90.913,36.133c-0.022,0.69-0.461,1.106-1.15,1.109  c-0.946,0.003-1.891,0.001-2.837,0.001c-0.946,0-1.891,0.002-2.837-0.001c-0.765-0.002-1.098-0.57-0.727-1.236  c0.186-0.334,0.397-0.657,0.561-1.001c0.276-0.58,0.75-0.89,1.346-1.037c1.609-0.398,3.22-0.788,4.831-1.179  c0.412-0.1,0.627,0.008,0.76,0.408c0.059,0.178,0.092,0.374,0.092,0.562C90.949,34.55,90.938,35.342,90.913,36.133z"></path><path d="M45.163,68.852c-0.033-0.437-0.174-0.525-0.589-0.424c-1.573,0.384-3.146,0.768-4.718,1.158  c-0.505,0.125-0.904,0.389-1.138,0.882c-0.164,0.345-0.371,0.669-0.557,1.004c-0.264,0.476-0.078,0.785,0.477,0.787  c0.933,0.004,1.865,0.001,2.798,0.001c0.958,0,1.917,0.004,2.875-0.002c0.501-0.003,0.815-0.303,0.834-0.802  c0.019-0.485,0.018-0.97,0.022-1.455C45.171,69.617,45.192,69.233,45.163,68.852z M40.443,71.953  c-0.63-0.011-1.123-0.523-1.117-1.161c0.006-0.63,0.521-1.14,1.147-1.135c0.618,0.004,1.145,0.531,1.149,1.146  C41.626,71.435,41.083,71.964,40.443,71.953z M42.946,70.726c-0.392,0.021-0.72-0.283-0.728-0.675  c-0.008-0.387,0.272-0.689,0.654-0.708c0.392-0.019,0.725,0.284,0.737,0.672C43.621,70.38,43.318,70.706,42.946,70.726z   M19.436,71.421c-0.181-0.323-0.378-0.637-0.539-0.97c-0.237-0.491-0.641-0.745-1.146-0.87c-1.572-0.388-3.144-0.772-4.717-1.157  c-0.385-0.094-0.499-0.022-0.568,0.37c-0.022,0.125-0.029,0.254-0.027,0.381c0.009,0.728,0.022,1.455,0.036,2.183  c0.012,0.614,0.307,0.899,0.932,0.9c0.907,0.002,1.814,0,2.721,0c0.933,0,1.865,0.001,2.798,0  C19.56,72.258,19.739,71.962,19.436,71.421z M14.575,70.727c-0.387,0.004-0.718-0.323-0.712-0.703  c0.006-0.382,0.341-0.695,0.731-0.681c0.38,0.013,0.666,0.315,0.662,0.7C15.251,70.424,14.954,70.723,14.575,70.727z M16.99,71.953  c-0.625-0.008-1.148-0.543-1.137-1.162c0.012-0.622,0.549-1.142,1.17-1.134c0.633,0.009,1.133,0.528,1.125,1.167  C18.14,71.462,17.628,71.961,16.99,71.953z M13.616,63.334c1.161-2.302,2.317-4.608,3.526-6.885  c0.466-0.878,1.298-1.276,2.296-1.276c5.655-0.003,11.31-0.001,16.965-0.002c0.537,0,1.075-0.007,1.612,0.002  c1.088,0.018,1.916,0.488,2.431,1.456c1.157,2.176,2.307,4.355,3.457,6.534c0.071,0.135,0.143,0.273,0.187,0.418  c0.16,0.523-0.079,0.919-0.616,1.015c-0.175,0.031-0.356,0.036-0.534,0.036c-5.194,0.002-10.388,0.002-15.581,0.002v0h-1.504  c-0.369,0-0.739,0-1.108,0c-0.139,0-0.278,0-0.449,0c0,0,0,0,0,0h-6.468v-0.007c-1.152,0.013-2.304,0.021-3.455-0.005  C13.573,64.603,13.253,64.052,13.616,63.334z M39.777,77.892c0.006,0.138,0.017,0.273,0.017,0.408  c0.002,0.793-0.003,1.585,0.002,2.378c0.003,0.551,0.306,0.86,0.848,0.862c1.433,0.004,2.866,0.004,4.299,0  c0.521-0.002,0.832-0.313,0.836-0.836c0.006-1.036-0.006-2.071,0.01-3.107c0.002-0.16,0.077-0.343,0.175-0.472  c0.271-0.357,0.428-0.728,0.426-1.194c-0.014-2.979-0.02-5.958,0.001-8.937c0.006-0.846-0.141-1.648-0.428-2.434  c-0.042-0.116-0.074-0.237-0.111-0.359c0.756-0.097,1.489-0.165,2.213-0.289c0.949-0.163,1.492-1.06,1.233-1.975  c-0.093-0.329-0.48-0.619-0.877-0.643c-0.919-0.056-1.84-0.092-2.757-0.166c-0.427-0.034-0.786,0.04-1.074,0.438  c-0.303-0.561-0.588-1.084-0.869-1.608c-0.949-1.766-1.905-3.528-2.84-5.302c-0.282-0.535-0.686-0.78-1.289-0.78  c-7.19,0.005-14.38,0.004-21.57,0.002c-0.595,0-0.998,0.247-1.284,0.788c-1.192,2.258-2.41,4.501-3.638,6.787  c-0.491-0.53-1.1-0.294-1.665-0.286c-0.6,0.009-1.2,0.109-1.799,0.105c-0.574-0.004-0.979,0.208-1.239,0.711c0,0.23,0,0.46,0,0.69  c0.038,0.091,0.084,0.18,0.111,0.274c0.161,0.547,0.526,0.869,1.084,0.953c0.717,0.108,1.437,0.195,2.159,0.292  c-0.147,0.551-0.307,1.112-0.442,1.678c-0.05,0.208-0.061,0.43-0.061,0.645c-0.004,3.158,0.002,6.316-0.009,9.474  c-0.001,0.41,0.139,0.738,0.362,1.062c0.093,0.135,0.163,0.318,0.166,0.48c0.015,1.023,0.006,2.046,0.008,3.068  c0.001,0.661,0.277,0.942,0.923,0.943c1.382,0.001,2.763,0.002,4.145,0c0.629-0.001,0.913-0.283,0.915-0.912  c0.003-0.904,0.001-1.809,0.001-2.736 M19.085,72.559c-0.971,0.01-1.942,0.003-2.913,0.003c-0.933,0.001-1.866,0.002-2.798,0.001  c-0.738-0.001-1.179-0.418-1.197-1.143c-0.019-0.766-0.034-1.532-0.034-2.298c0-0.213,0.035-0.435,0.104-0.636  c0.132-0.379,0.343-0.475,0.744-0.378c1.611,0.391,3.222,0.781,4.831,1.179c0.596,0.147,1.07,0.456,1.348,1.034  c0.177,0.367,0.398,0.712,0.595,1.07C20.083,71.965,19.748,72.552,19.085,72.559z M45.444,71.452  c-0.022,0.69-0.461,1.106-1.15,1.109c-0.946,0.003-1.891,0.001-2.837,0.001c-0.946,0-1.891,0.002-2.837-0.001  c-0.765-0.002-1.098-0.57-0.727-1.236c0.186-0.334,0.397-0.657,0.561-1.001c0.276-0.58,0.75-0.89,1.346-1.037  c1.609-0.398,3.22-0.788,4.831-1.179c0.412-0.1,0.627,0.008,0.76,0.408c0.059,0.178,0.092,0.374,0.092,0.562  C45.481,69.869,45.47,70.661,45.444,71.452z"></path><path d="M90.631,68.852c-0.033-0.437-0.174-0.525-0.589-0.424c-1.573,0.384-3.146,0.768-4.718,1.158  c-0.505,0.125-0.904,0.389-1.138,0.882c-0.164,0.345-0.371,0.669-0.557,1.004c-0.264,0.476-0.078,0.785,0.477,0.787  c0.933,0.004,1.865,0.001,2.798,0.001c0.958,0,1.917,0.004,2.875-0.002c0.501-0.003,0.815-0.303,0.834-0.802  c0.019-0.485,0.018-0.97,0.022-1.455C90.639,69.617,90.66,69.233,90.631,68.852z M85.911,71.953  c-0.63-0.011-1.123-0.523-1.117-1.161c0.006-0.63,0.521-1.14,1.147-1.135c0.618,0.004,1.145,0.531,1.149,1.146  C87.094,71.435,86.551,71.964,85.911,71.953z M88.414,70.726c-0.392,0.021-0.72-0.283-0.728-0.675  c-0.008-0.387,0.272-0.689,0.654-0.708c0.392-0.019,0.725,0.284,0.737,0.672C89.089,70.38,88.786,70.706,88.414,70.726z   M64.904,71.421c-0.181-0.323-0.378-0.637-0.539-0.97c-0.237-0.491-0.641-0.745-1.146-0.87c-1.572-0.388-3.144-0.772-4.717-1.157  c-0.385-0.094-0.499-0.022-0.568,0.37c-0.022,0.125-0.029,0.254-0.027,0.381c0.009,0.728,0.022,1.455,0.036,2.183  c0.012,0.614,0.307,0.899,0.932,0.9c0.907,0.002,1.814,0,2.721,0c0.933,0,1.865,0.001,2.798,0  C65.029,72.258,65.207,71.962,64.904,71.421z M60.043,70.727c-0.387,0.004-0.718-0.323-0.712-0.703  c0.006-0.382,0.341-0.695,0.731-0.681c0.38,0.013,0.666,0.315,0.662,0.7C60.72,70.424,60.423,70.723,60.043,70.727z M62.458,71.953  c-0.625-0.008-1.148-0.543-1.137-1.162c0.012-0.622,0.549-1.142,1.17-1.134c0.633,0.009,1.133,0.528,1.125,1.167  C63.608,71.462,63.096,71.961,62.458,71.953z M59.084,63.334c1.161-2.302,2.317-4.608,3.526-6.885  c0.466-0.878,1.298-1.276,2.296-1.276c5.655-0.003,11.31-0.001,16.965-0.002c0.537,0,1.075-0.007,1.612,0.002  c1.088,0.018,1.916,0.488,2.431,1.456c1.157,2.176,2.307,4.355,3.457,6.534c0.071,0.135,0.143,0.273,0.187,0.418  c0.16,0.523-0.079,0.919-0.616,1.015c-0.175,0.031-0.356,0.036-0.534,0.036c-5.194,0.002-10.388,0.002-15.581,0.002v0h-1.504  c-0.369,0-0.739,0-1.108,0c-0.139,0-0.278,0-0.449,0c0,0,0,0,0,0H63.3v-0.007c-1.152,0.013-2.304,0.021-3.455-0.005  C59.042,64.603,58.722,64.052,59.084,63.334z M85.245,77.892c0.006,0.138,0.017,0.273,0.017,0.408  c0.002,0.793-0.003,1.585,0.002,2.378c0.003,0.551,0.306,0.86,0.848,0.862c1.433,0.004,2.866,0.004,4.299,0  c0.521-0.002,0.832-0.313,0.836-0.836c0.006-1.036-0.006-2.071,0.01-3.107c0.002-0.16,0.077-0.343,0.175-0.472  c0.271-0.357,0.428-0.728,0.426-1.194c-0.014-2.979-0.02-5.958,0.001-8.937c0.006-0.846-0.141-1.648-0.428-2.434  c-0.042-0.116-0.074-0.237-0.111-0.359c0.756-0.097,1.489-0.165,2.213-0.289c0.949-0.163,1.492-1.06,1.233-1.975  c-0.093-0.329-0.48-0.619-0.877-0.643c-0.919-0.056-1.84-0.092-2.757-0.166c-0.427-0.034-0.786,0.04-1.074,0.438  c-0.303-0.561-0.588-1.084-0.869-1.608c-0.949-1.766-1.905-3.528-2.84-5.302c-0.282-0.535-0.686-0.78-1.289-0.78  c-7.19,0.005-14.38,0.004-21.57,0.002c-0.595,0-0.998,0.247-1.284,0.788c-1.192,2.258-2.41,4.501-3.638,6.787  c-0.491-0.53-1.1-0.294-1.665-0.286c-0.6,0.009-1.2,0.109-1.799,0.105c-0.574-0.004-0.979,0.208-1.239,0.711c0,0.23,0,0.46,0,0.69  c0.038,0.091,0.084,0.18,0.111,0.274c0.161,0.547,0.526,0.869,1.084,0.953c0.717,0.108,1.437,0.195,2.159,0.292  c-0.147,0.551-0.307,1.112-0.442,1.678c-0.05,0.208-0.061,0.43-0.061,0.645c-0.004,3.158,0.002,6.316-0.009,9.474  c-0.001,0.41,0.139,0.738,0.362,1.062c0.093,0.135,0.163,0.318,0.166,0.48c0.015,1.023,0.006,2.046,0.008,3.068  c0.001,0.661,0.277,0.942,0.923,0.943c1.382,0.001,2.763,0.002,4.145,0c0.629-0.001,0.913-0.283,0.915-0.912  c0.003-0.904,0.001-1.809,0.001-2.736 M64.554,72.559c-0.971,0.01-1.942,0.003-2.913,0.003c-0.933,0.001-1.866,0.002-2.798,0.001  c-0.738-0.001-1.179-0.418-1.197-1.143c-0.019-0.766-0.034-1.532-0.034-2.298c0-0.213,0.035-0.435,0.104-0.636  c0.132-0.379,0.343-0.475,0.744-0.378c1.611,0.391,3.222,0.781,4.831,1.179c0.596,0.147,1.07,0.456,1.348,1.034  c0.177,0.367,0.398,0.712,0.595,1.07C65.551,71.965,65.216,72.552,64.554,72.559z M90.913,71.452  c-0.022,0.69-0.461,1.106-1.15,1.109c-0.946,0.003-1.891,0.001-2.837,0.001c-0.946,0-1.891,0.002-2.837-0.001  c-0.765-0.002-1.098-0.57-0.727-1.236c0.186-0.334,0.397-0.657,0.561-1.001c0.276-0.58,0.75-0.89,1.346-1.037  c1.609-0.398,3.22-0.788,4.831-1.179c0.412-0.1,0.627,0.008,0.76,0.408c0.059,0.178,0.092,0.374,0.092,0.562  C90.949,69.869,90.938,70.661,90.913,71.452z"></path><rect x="8.397" y="12.781" width="86.434" height="3.897"></rect><rect x="8.397" y="48.1" width="86.434" height="3.897"></rect><rect x="8.397" y="83.419" width="86.434" height="3.897"></rect></svg>