<svg xmlns:xlink="http://www.w3.org/1999/xlink" xmlns="http://www.w3.org/2000/svg" height="272" width="272" fill="#ffffff" data-name="Layer 1" viewBox="0 0 64 64" x="0px" y="0px"><title>earthquake-geohazard-fissure-crack-destroy</title><path d="M10.35352,17.5h1.84863L14,16.30145V6H4V21.178L6.644,22.5H8.52588A.49945.49945,0,0,1,9,22.8418l1,3-.94824.3164L8.16553,23.5H6.52588a.50687.50687,0,0,1-.22363-.05273L4,22.29614V30H14V17.50323l-1.36914.91279a.50053.50053,0,0,1-.27734.084h-1.793l-.85352.85352L9,18.64648l1-1A.49963.49963,0,0,1,10.35352,17.5ZM8,9h2v2H8Zm0,6V13h2v2Z"></path><path d="M45,24l-4-2-5,2-2-3-5-2V30H45ZM34,27H32V25h2Zm8,0H40V25h2Z"></path><path d="M49.64,16.61993l.29816,1.19257,2.83936,1.89258a.49958.49958,0,0,1,.20752.53711l-1,4L51.01532,24l.91455-3.6582-2.707-1.80469a.49807.49807,0,0,1-.20752-.29492l-.142-.568L45,23l1,1v6H56l4.02765-5.75378L59.28906,24A.50378.50378,0,0,1,59,23.749l-2-4,.89453-.44726,1.90723,3.81445.82452.27484L63,20,53,12Z"></path><path d="M31.63965,7.43359A3.04253,3.04253,0,0,0,33,5H31c0,.32129-.12842.4707-.63965.89648A3.04257,3.04257,0,0,0,29,8.33008a3.04357,3.04357,0,0,0,1.35938,2.43457c.48437.4043.64062.5625.64062.90039,0,.33691-.15625.49512-.64014.89844A3.0479,3.0479,0,0,0,29,15h2c0-.33789.15625-.49609.64062-.90039A3.04357,3.04357,0,0,0,33,11.665a3.04788,3.04788,0,0,0-1.35986-2.43652C31.15625,8.8252,31,8.667,31,8.33008,31,8.00879,31.12842,7.85938,31.63965,7.43359Z"></path><path d="M41.63965,12.43359A3.04253,3.04253,0,0,0,43,10H41c0,.32129-.12842.4707-.63965.89648A3.04257,3.04257,0,0,0,39,13.33008a3.04357,3.04357,0,0,0,1.35938,2.43457c.48437.4043.64062.5625.64062.90039,0,.33691-.15625.49512-.64014.89844A3.0479,3.0479,0,0,0,39,20h2c0-.33789.15625-.49609.64062-.90039A3.04357,3.04357,0,0,0,43,16.665a3.04788,3.04788,0,0,0-1.35986-2.43652C41.15625,13.8252,41,13.667,41,13.33008,41,13.00879,41.12842,12.85938,41.63965,12.43359Z"></path><path d="M60.63965,5.43359A3.04253,3.04253,0,0,0,62,3H60c0,.32129-.12842.4707-.63965.89648A3.04257,3.04257,0,0,0,58,6.33008a3.04357,3.04357,0,0,0,1.35938,2.43457C59.84375,9.169,60,9.32715,60,9.665c0,.33691-.15625.49512-.64014.89844A3.0479,3.0479,0,0,0,58,13h2c0-.33789.15625-.49609.64062-.90039A3.04357,3.04357,0,0,0,62,9.665a3.04788,3.04788,0,0,0-1.35986-2.43652C60.15625,6.8252,60,6.667,60,6.33008,60,6.00879,60.12842,5.85938,60.63965,5.43359Z"></path><path d="M32,36l-6,7h4l2,13-7-9H18l3-8H13l4-8H2V62H62V31H27ZM11,49a5,5,0,0,0,0,10v2a7,7,0,0,1,0-14Zm1-14H5V33h7Zm7,15a4,4,0,0,0,0,8v2a6,6,0,0,1,0-12Zm6,2a2,2,0,0,0,0,4v2a4,4,0,0,1,0-8Zm19,8V58a4,4,0,0,0,0-8V48a6,6,0,0,1,0,12Zm14-6a7.00818,7.00818,0,0,1-7,7V59a5,5,0,0,0,0-10V47A7.00818,7.00818,0,0,1,58,54ZM38,36H53v2H38Zm0,20a2,2,0,0,0,0-4V50a4,4,0,0,1,0,8Z"></path></svg>