<svg xmlns:xlink="http://www.w3.org/1999/xlink" xmlns="http://www.w3.org/2000/svg" height="272" width="272" fill="#ffffff" data-name="Layer 1" viewBox="0 0 32 32" x="0px" y="0px"><title>Amenities flat</title><path d="M29,28V4a1,1,0,0,0,0-2H3A1,1,0,0,0,3,4V28a1,1,0,0,0,0,2H29a1,1,0,0,0,0-2ZM5,4H15V28H5ZM17,28V4H27V28Z"></path><path d="M10.71,12.29a1,1,0,0,0-1.42,0l-2,2a1,1,0,1,0,1.41,1.41L9,15.41V19a1,1,0,0,0,2,0V15.41l.29.29a1,1,0,0,0,1.41-1.41Z"></path><path d="M23.29,16.29l-.29.29V13a1,1,0,0,0-2,0v3.59l-.29-.29a1,1,0,0,0-1.41,1.41l2,2a1,1,0,0,0,1.42,0l2-2a1,1,0,0,0-1.41-1.41Z"></path></svg>