<svg xmlns="http://www.w3.org/2000/svg" xmlns:xlink="http://www.w3.org/1999/xlink" height="272" width="272" fill="#ffffff" x="0px" y="0px" viewBox="0 0 68 68" xml:space="preserve"><g><path d="M8.38147,13.70256c-0.54999,0-1,0.45001-1,1v2.87H6.31146c-0.39001,0-0.75,0.23004-0.90997,0.59003l-1.33002,2.96997h8.62   l-1.33002-2.96997c-0.15997-0.35999-0.51996-0.59003-0.90997-0.59003H9.38147v-2.87   C9.38147,14.15258,8.93146,13.70256,8.38147,13.70256z"></path><path d="M59.61145,13.70256c-0.54999,0-1,0.45001-1,1v2.87h-1.07001c-0.38995,0-0.75,0.23004-0.90997,0.59003l-1.33002,2.96997   h8.62l-1.32996-2.96997c-0.16003-0.35999-0.52002-0.59003-0.91003-0.59003h-1.07001v-2.87   C60.61145,14.15258,60.16144,13.70256,59.61145,13.70256z"></path><path d="M54.05145,33.89257h-6.5l-0.51001-1.15997c-0.22998-0.5-0.82001-0.72998-1.32001-0.51001   c-0.50995,0.22003-0.73999,0.82001-0.50995,1.32001l0.14996,0.34998h-4.26001l-0.50995-1.15997   c-0.23004-0.5-0.82001-0.72998-1.32001-0.51001c-0.51001,0.22003-0.73999,0.82001-0.51001,1.32001l0.14996,0.34998h-4.25995   l-0.51001-1.15997c-0.23004-0.5-0.82001-0.72998-1.32001-0.51001c-0.51001,0.22003-0.73999,0.81-0.51001,1.32001l0.15002,0.34998   h-4.26001l-0.52002-1.15997c-0.21997-0.5-0.81-0.72998-1.31-0.51001c-0.51001,0.22003-0.73999,0.82001-0.51001,1.32001   l0.15002,0.34998h-4.27002l-0.51001-1.15997c-0.21997-0.5-0.81-0.72998-1.32001-0.51001   c-0.5,0.22003-0.72998,0.82001-0.50995,1.32001l0.15997,0.34998h-5.62v-1.26001H2.83148v33.37005c0,0.54999,0.45001,1,1,1h9.10999   c0.01001,0,0.01001,0,0.02002,0h42.07001c0.00995,0,0.00995,0,0.01996,0h9.10999c0.56,0,1-0.45001,1-1V32.63256H54.05145V33.89257z    M13.94147,42.25261h1.63l3.73999,4.88995l-3.77002,5.48999h-1.59998V42.25261z M44.99146,42.25261h4.91003l-2.46002,3.20996   L44.99146,42.25261z M50.71149,53.63256l-3.27002,4.74005l-3.27002-4.74005l3.27002-4.75995L50.71149,53.63256z M46.21149,47.14257   l-3.25,4.72003l-3.25-4.72003l3.25-4.23999L46.21149,47.14257z M41.75146,53.63256l-3.27002,4.74005l-3.26996-4.74005   l3.26996-4.75995L41.75146,53.63256z M38.48145,45.46257l-2.45996-3.20996h4.91998L38.48145,45.46257z M37.24146,47.14257   l-3.23999,4.72003l-3.25-4.72003l3.25-4.23999L37.24146,47.14257z M32.78149,53.63256l-3.27002,4.74005l-3.27002-4.74005   l3.27002-4.75995L32.78149,53.63256z M29.51147,45.46257l-2.46002-3.20996h4.91998L29.51147,45.46257z M28.28149,47.14257   l-3.25,4.72003l-3.25-4.72003l3.25-4.23999L28.28149,47.14257z M23.82147,53.63256l-3.27002,4.74005l-3.26996-4.74005   l3.26996-4.75995L23.82147,53.63256z M20.55145,45.46257l-2.45996-3.20996h4.90997L20.55145,45.46257z M13.94147,65.00261V54.63256   h1.59998l3.77002,5.48004l-3.73999,4.89001H13.94147z M18.09149,65.00261l2.45996-3.22003l2.45001,3.22003H18.09149z    M21.78149,60.1126l3.25-4.72003l3.25,4.72003l-3.25,4.23999L21.78149,60.1126z M27.05145,65.00261l2.46002-3.22003   l2.45996,3.22003H27.05145z M30.75146,60.1126l3.25-4.72003l3.23999,4.72003l-3.23999,4.23999L30.75146,60.1126z    M36.02148,65.00261l2.45996-3.22003l2.46002,3.22003H36.02148z M39.71149,60.1126l3.25-4.72003l3.25,4.72003l-3.25,4.23999   L39.71149,60.1126z M44.99146,65.00261l2.45001-3.22003l2.46002,3.22003H44.99146z M54.05145,65.00261h-1.63l-3.73999-4.89001   l3.77002-5.48004h1.59998V65.00261z M54.05145,52.63256h-1.59998l-3.77002-5.48999l3.73999-4.88995h1.63V52.63256z    M54.05145,40.25261H13.94147v-4.36005h6.5l0.51001,1.15002c0.16998,0.37,0.52997,0.59998,0.91998,0.59998   c0.13,0,0.27002-0.02997,0.40002-0.08997c0.51001-0.22003,0.73999-0.81,0.51001-1.32001l-0.15002-0.34003h4.26001l0.51001,1.15002   c0.16998,0.37,0.53998,0.59998,0.91998,0.59998c0.14001,0,0.27002-0.02997,0.39996-0.08997   c0.51001-0.22003,0.74005-0.81,0.51001-1.32001l-0.14996-0.34003h4.26001l0.51996,1.15002   c0.16003,0.37,0.53003,0.59998,0.91003,0.59998c0.13995,0,0.26996-0.02997,0.39996-0.08997   c0.51001-0.22003,0.73999-0.81,0.51001-1.32001l-0.14996-0.34003h4.26996l0.51001,1.15002   c0.15997,0.37,0.53003,0.59998,0.90997,0.59998c0.14001,0,0.27002-0.02997,0.41003-0.08997   c0.5-0.22003,0.72998-0.81,0.51001-1.32001l-0.16003-0.34003h4.27002l0.51001,1.15002   c0.15997,0.37,0.52997,0.59998,0.90997,0.59998c0.14001,0,0.28003-0.02997,0.41003-0.08997   c0.5-0.22003,0.72998-0.81,0.51001-1.32001l-0.16003-0.34003h5.62V40.25261z"></path><path d="M15.77148,29.1726v-4.56c0-0.75-0.56-1.39001-1.30005-1.48004H2.30145c-0.73999,0.09003-1.29999,0.73004-1.29999,1.48004   v4.56c0,0.70996,0.5,1.31,1.16998,1.45996h12.42999C15.27148,30.48259,15.77148,29.88256,15.77148,29.1726z"></path><path d="M65.70148,23.13256H53.52148c-0.73004,0.09003-1.30005,0.73004-1.30005,1.48004v4.56c0,0.70996,0.5,1.31,1.17004,1.45996   h12.44c0.66998-0.14996,1.16998-0.75,1.16998-1.45996v-4.56C67.00146,23.8626,66.43146,23.22258,65.70148,23.13256z"></path><path d="M1.99854,10.99742h3.29248c0.55225,0,1-0.44775,1-1c0-1.08398,0.87109-1.96875,1.9502-1.99023   c0.02881,0.00195,0.05713,0.00342,0.08105,0.00342c0.5,0,0.92334-0.36914,0.99072-0.86475   c0.13428-0.98145,0.97656-1.72168,1.95947-1.72168c0.36816,0,0.73438,0.10791,1.05811,0.3125   c0.27051,0.17041,0.60498,0.20215,0.90137,0.08447c0.29688-0.11768,0.51953-0.36963,0.6001-0.67822   c0.32861-1.26318,1.46875-2.14551,2.77246-2.14551c1.58203,0,2.86914,1.28711,2.86914,2.86914   c0,0.29297-0.04395,0.58154-0.13086,0.8584c-0.09814,0.31348-0.03662,0.65479,0.16553,0.91406   c0.20166,0.25879,0.51904,0.3999,0.8457,0.38379c0.02686-0.00146,0.09326-0.0127,0.11963-0.01611   c1.09766,0,1.99072,0.89307,1.99072,1.99072c0,0.55225,0.44775,1,1,1h2.19678c0.55225,0,1-0.44775,1-1s-0.44775-1-1-1H24.3374   c-0.36279-1.40088-1.46924-2.50537-2.87109-2.86572c0.00488-0.08838,0.00732-0.17676,0.00732-0.26514   c0-2.68506-2.18408-4.86914-4.86914-4.86914c-1.82178,0-3.45557,1.01416-4.28809,2.56885   c-0.33984-0.09375-0.69043-0.14209-1.04395-0.14209c-1.70068,0-3.19141,1.09668-3.74707,2.6543   c-1.51318,0.2915-2.72461,1.43994-3.10742,2.91894H1.99854c-0.55225,0-1,0.44775-1,1S1.44629,10.99742,1.99854,10.99742z"></path><path d="M42.33496,10.99742h2.19629c0.55225,0,1-0.44775,1-1c0-1.09766,0.89307-1.99072,1.9541-1.99121   c0.02686,0.00391,0.12939,0.01465,0.15625,0.0166c0.3291,0.01758,0.64355-0.12451,0.8457-0.3833   c0.20164-0.25879,0.26367-0.6001,0.16602-0.91357c-0.08691-0.27783-0.13086-0.56689-0.13086-0.85938   c0-1.58203,1.28711-2.86914,2.86914-2.86914c1.30371,0,2.44336,0.88232,2.77197,2.14502   c0.08008,0.30908,0.30322,0.56104,0.6001,0.67822c0.29688,0.11816,0.63086,0.08643,0.90137-0.08398   c0.32373-0.20459,0.68994-0.3125,1.05811-0.3125c0.98291,0,1.8252,0.74023,1.95947,1.72168   c0.06738,0.49561,0.49072,0.86475,0.99072,0.86475c0.02344,0,0.05176-0.00146,0.08057-0.00342   c1.07959,0.02148,1.95117,0.90576,1.95117,1.99023c0,0.55225,0.44775,1,1,1h3.29248c0.55225,0,1-0.44775,1-1s-0.44775-1-1-1   h-2.41943c-0.38281-1.479-1.59473-2.62744-3.10791-2.91894c-0.55566-1.55762-2.04639-2.6543-3.74707-2.6543   c-0.35352,0-0.7041,0.04785-1.04346,0.1416c-0.83252-1.5542-2.46582-2.56836-4.28809-2.56836   c-2.68506,0-4.86914,2.18408-4.86914,4.86914c0,0.08838,0.00244,0.17676,0.00732,0.26514   C45.12744,6.49205,44.021,7.59655,43.6582,8.99742h-1.32324c-0.55225,0-1,0.44775-1,1S41.78271,10.99742,42.33496,10.99742z"></path></g></svg>