<svg xmlns="http://www.w3.org/2000/svg" xmlns:xlink="http://www.w3.org/1999/xlink" xmlns:a="http://ns.adobe.com/AdobeSVGViewerExtensions/3.0/" height="272" width="272" fill="#ffffff" x="0px" y="0px" viewBox="0 0 100 100" xml:space="preserve"><path d="M64.3291016,0H7.0136719C3.1464844,0,0,3.1464844,0,7.0136719v85.9726563C0,96.8535156,3.1464844,100,7.0136719,100  h57.3154297c3.8671875,0,7.0131836-3.1464844,7.0131836-7.0136719V7.0136719C71.3422852,3.1464844,68.1962891,0,64.3291016,0z   M33.2832031,92.9863281H7.0136719V7.0136719h14.3286133v9.5527344h11.940918V92.9863281z M64.3291016,92.9863281H38.0595703  V16.5664063H50V7.0136719h14.3291016V92.9863281z M80.8950195,30.8950195h-4.7763672l9.5527344-14.3286133h4.7758789L100,30.8950195  h-4.7763672l-3.6572266-5.4868164v19.8154297h-7.0136719V25.4082031L80.8950195,30.8950195z M95.2236328,69.1054688H100  L90.4472656,83.434082h-4.7758789l-9.5527344-14.3286133h4.7763672l3.6577148,5.4863281V54.7763672h7.0136719v19.8154297  L95.2236328,69.1054688z"></path></svg>