<svg xmlns="http://www.w3.org/2000/svg" xmlns:xlink="http://www.w3.org/1999/xlink" id="Layer_1" x="0px" y="0px" viewBox="0 0 634.2 634.2" style="enable-background:new 0 0 634.2 634.2;" xml:space="preserve">
<style type="text/css">
	.st0{fill:#FFFFFF;}
</style>
<path class="st0" d="M331.7,21.2c11.4,3.5,22.4,7.8,31.5,15.7c14.6,12.5,24,28.1,26,47.4c2.2,21.9,2.3,43.6-10.2,63.2  c-2.6,4.1-5.6,7.9-8.7,12.1c7.2,1.8,14.3,3.2,21.2,5.5c35.7,12.1,59.7,36.3,72.1,71.7c10.1,28.8,19.7,57.7,29.1,86.7  c3.2,9.9,7.3,19.2,13.2,27.7c2.7,3.8,5.2,7.8,7.3,11.9c2.8,5.8,0.8,12-4.6,15.2c-5,2.9-11.7,1.9-15-3.3c-7.8-12.3-16.6-23.8-21.1-38  c-9.6-30.2-20-60.1-30.1-90.1c-9.4-27.9-27.1-48.5-55.2-58.3c-10.6-3.7-22.3-5.4-33.6-5.7c-24.7-0.8-49.4-0.4-74.1-0.2  c-35,0.3-62.3,14.7-80.4,45.1c-3.6,6.1-6.3,12.9-8.6,19.7c-10.9,31.8-21.5,63.7-32.3,95.5c-1.2,3.6-2.9,7.2-5,10.5  c-25.4,40.3-51,80.5-76.3,120.8c-2.2,3.5-3.8,7.7-4.3,11.8c-0.7,6.2,2.7,10.8,8.3,13.5c5.8,2.8,11.4,1.8,16.3-2.4  c1.7-1.5,3.1-3.5,4.4-5.4c29-41.2,58-82.4,86.9-123.6c1.8-2.5,3.2-5.3,4.4-8.2c10-23.6,20.1-47.2,29.7-71c2.5-6.1,3.7-12.9,4.5-19.5  c1.1-9.6,7.4-15.1,15.4-12.5c4.4,1.5,7.2,4.5,7.8,9.2c0.3,2.5,0.4,5,0.4,7.6c0,47.5,0,94.9,0,142.4c0,2.3,0,4.6,0,7.3  c44.1,0,87.5,0,131.7,0c0-2.6,0-4.8,0-7.1c0-47.7,0-95.3,0-143c0-3.1,0.1-6.3,1-9.2c1.6-5.3,5.9-7.9,11.1-7.8  c5.3,0.1,10.4,3.1,10.6,8.3c0.6,23.3,14.7,41.8,21.6,62.9c1,2.9,2.5,5.7,3.5,8.6c6.9,19.4,17.3,36.7,29.3,53.4  c24.5,33.9,48.3,68.3,72.2,102.5c4.1,5.8,9,9.9,16.5,8.7c11.1-1.8,16-13.6,9.8-23.9c-5.8-9.7-12-19.1-18.1-28.6  c-1.1-1.8-2.3-3.6-3.1-5.6c-2.2-5.5-0.4-11.4,4.3-14.3c4.8-3,11.4-2.6,14.7,2.3c9,13.8,19,27.3,25.6,42.2c9,20.3-3.1,43-24.3,49.8  c-1.5,0.5-2.9,0.9-3.9,1.1c1,9.3,2.9,18.3,2.7,27.3c-0.9,43.2-42.3,76.2-84.4,66.2c-38.3-9.1-76.2-20.5-114.4-30.2  c-14.9-3.8-29.4-11.9-45-9.6c-15.3,2.3-30.1,7.7-45.1,11.7c-34.7,9.3-69.2,19.5-104.2,27.6c-53.2,12.4-98.3-36.5-83-89  c0.3-1.1,0.6-2.2,1-3.7c-11.7-2.7-21.1-8.5-26.9-18.9c-6.7-12.1-7.4-24.6-0.8-36.8c5.3-9.9,11.7-19.2,17.8-28.8  c20.4-32.2,40.8-64.4,61.1-96.6c1.9-3.1,3.6-6.5,4.7-9.9c10.6-31.3,21-62.6,31.6-93.9c13.1-38.4,38.8-63.8,77.8-75.6  c5.2-1.6,10.6-2.3,16.6-3.6c-1.2-1.6-2.1-2.9-3.1-4.2c-10.8-13.3-16.6-28.5-16.7-45.6c-0.2-13.8-0.9-27.6,4.1-40.9  c8.7-22.9,24.6-38.2,47.9-45.9c1.8-0.6,3.5-1.4,5.2-2.1C310.7,21.2,321.2,21.2,331.7,21.2z M356.1,561.4c0.7,0.7,0.9,1.1,1.3,1.2  c39,10.5,77.9,21.4,117,31.4c18.5,4.7,35-0.6,47.2-15.4c20.2-24.5,12.7-57.8-16.2-72.8c-37.1-19.2-74.4-38-111.6-56.9  c-2.2-1.1-4.8-1.7-7.2-1.7c-46.7-0.1-93.4-0.1-140.1,0c-2.4,0-5.1,0.6-7.2,1.6c-37.3,18.9-74.5,37.7-111.6,57  c-6.2,3.2-12.3,7.8-16.8,13.2c-13.3,15.8-14.2,37.9-3.4,54.8c11,17.1,31.3,25.4,51.9,19.9c57.8-15.3,115.6-30.9,173.3-46.6  c4.2-1.1,8.4-4.2,11.3-7.5c4.4-5.1,3.9-13.1,0.2-18.6c-4.2-6.2-11.1-8.6-19.6-6.7c-44.4,10.5-88.8,21-133.3,31.4  c-8.3,2-14.6-1.3-16.1-8.2c-1.5-7.1,2.4-12.4,10.8-14.5c8.9-2.2,17.8-4.3,26.6-6.3c35.9-8.5,71.8-17,107.8-25.3  c13.6-3.2,25.7,0,36.6,8.9c1.8,1.5,4.3,2.5,6.7,3.1c27.8,6.7,55.6,13.2,83.3,19.8c8.2,2,12.2,7.9,10.5,14.7c-1.6,6.5-8,9.8-15.8,8  c-8.3-1.9-16.6-3.9-24.9-5.9c-15.3-3.6-30.5-7.1-46.4-10.8C370.4,542.4,365.2,552.9,356.1,561.4z M266,101c0.2,4.7,0.1,9.3,0.7,14  c2.9,23.7,21.8,41.9,45.1,43.9c24.1,2,46.4-12.2,52-35.7c2.8-11.8,2.7-24.7,1.6-36.9c-1.7-18.5-12.8-31.5-29.7-38.7  c-17.2-7.3-34-5.2-49.1,5.9C270.8,65.2,265.2,81.7,266,101z M486,469.3c0.2-0.3,0.3-0.6,0.5-0.8c-16.6-23.7-33-47.6-50-70.9  c-10.6-14.5-19.6-29.7-25.6-46.7c-1.2-3.3-2.8-6.4-4.2-9.6c-1.2,27.6-1.1,54.7-1.3,81.9c0,4.1,1.3,6.1,4.9,8  c23.8,11.9,47.4,24,71.1,36.1C483,468,484.5,468.6,486,469.3z M226.8,342.3c-0.3-0.1-0.6-0.1-0.9-0.2c-0.9,2-1.9,4-2.7,6.1  c-6.5,15.6-13.1,30.9-23.3,44.7c-17.4,23.4-33.7,47.5-50.4,71.3c-1,1.5-2,3-3.6,5.5c1.7-0.7,2.4-0.9,3.1-1.2  c24.9-12.7,49.8-25.4,74.7-37.9c3.4-1.7,3.5-4.1,3.5-7.1c0-25.4,0-50.9,0-76.3C227.1,345.5,226.9,343.9,226.8,342.3z"></path>
<path class="st0" d="M523.5,413.6c-6.4-0.2-11.3-5.3-11.2-11.6c0.1-6.3,5.6-11.8,11.9-11.8c6.3,0,11.9,5.8,11.6,12  C535.6,408.5,529.8,413.8,523.5,413.6z"></path>
</svg>