<svg xmlns="http://www.w3.org/2000/svg" xmlns:xlink="http://www.w3.org/1999/xlink" height="272" width="272" fill="#ffffff" x="0px" y="0px" viewBox="0 0 49 49" xml:space="preserve"><g><path d="M45.4998,34.3087c-0.7227,6.3247-3.7887,9.2299-7.84,10.03c-6.5782,1.2866-10.6371-5.5383-8.65-11.61   c0.07-0.22,0.29-0.36,0.52-0.34c1.0548,0.088-0.3443,2.3956,2.41,4c2.61,1.53,6.03,0.97,7.94-1.3   c5.9587-7.0789-0.3517-17.8708-5.51-8.18c-0.86,1.66-1.9,2.98-3.1999,4.04c-1.6032,1.336-3.0812,1.2021-5.25,1.06   c6.4516,13.2986-9.1818,21.6217-18.45,10.93c-3.5095-4.0287-4.7596-10.0714-3.82-15.25c0.0809-0.3847,0.4448-0.6509,0.79-0.5   c0.7829,0.3425,0.4746,10.0458,7.38,13.1c8.8207,3.9541,14.9628-6.2166,7.76-8.2c-1.13-0.32-2.31-0.19-3.7,0.38   c-0.1892,0.0631-0.4203,0.2829-0.73,0.14c-0.3838-0.1771-0.1439-0.1013-2.55-7.28c-0.1085-0.369,0.1897-0.7117,0.56-0.65   c2.4531,0.4266,6.4298,1.1019,7.93-1.22c0.9524-1.4851,0.0166-3.3369-2.6-3.54c-1.03-0.09-2.1,0.13-3.4399,0.71   c-3.5918,1.523-4.3974,3.242-4.91,2.29l-2.84-5.38c-0.2823-0.5173,0.4292-0.7938,0.55-0.92c0.29-0.21,0.58-0.41,0.88-0.6   c2.34-1.48,4.67-2.34,7.12-2.63c10.2364-1.2456,12.2827,9.5352,5.51,14.78c2.2194,0.8996,2.7921,1.1529,3.39,0.69   c1.9334-1.5263,3.4906-5.7921,5.74-8.02C36.3797,14.9284,47.049,20.2649,45.4998,34.3087z"></path><path d="M41.8899,12.3286l-0.07,0.09c-0.05,0.07-0.1,0.14-0.16,0.2c-6.5036,7.783-20.6963,4.6705-20.38-6.6   c0.01-0.24,0.18-0.44,0.42-0.48c0.24-0.03,0.47,0.1,0.55,0.32l0.09,0.24c0.05,0.16,0.11,0.32,0.17,0.47   c1.7207,4.0195,7.2129,6.9269,12.65,3.02c0.6-0.43,1.16-0.91,1.76-1.42c0.27-0.23,0.54-0.46,0.8199-0.69   c0.22-0.17,0.53-0.14,0.7,0.07l3.44,4.15C42.0299,11.8786,42.0299,12.1386,41.8899,12.3286z"></path><path d="M26.5999,5.1086c-0.2-0.19-0.2-0.51,0-0.7l3.07-3.08c0.2-0.2,0.52-0.2,0.71,0l3.08,3.08c0.19,0.19,0.19,0.51,0,0.7   l-3.08,3.08c-0.1,0.1-0.22,0.15-0.35,0.15s-0.26-0.05-0.36-0.15L26.5999,5.1086z"></path></g></svg>