<svg xmlns="http://www.w3.org/2000/svg" xmlns:xlink="http://www.w3.org/1999/xlink" height="272" width="272" fill="#ffffff" x="0px" y="0px" viewBox="0 0 512 512" style="enable-background:new 0 0 512 512;" xml:space="preserve"><g><path d="M477.766,115.399h-25.007c-10.217,0-18.538,8.313-18.538,18.538v15.414h-16.745c-8.336,0-15.127,6.785-15.127,15.127v1.441   h-49.122c-3.3-12.261-14.411-21.361-27.691-21.361h-9.445l-9.784-28.241c-0.838-2.426-3.117-4.05-5.689-4.05h-11.423V87.349h5.028   c3.322,0,6.027-2.698,6.027-6.02v-1.823h12.569c5.498,6.601,13.613,10.452,22.302,10.452c16.024,0,29.079-13.047,29.079-29.079   s-13.055-29.079-29.079-29.079c-8.688,0-16.803,3.852-22.302,10.452H300.25V39.82c0-3.322-2.705-6.02-6.027-6.02h-59.334   c-3.322,0-6.027,2.698-6.027,6.02v2.433H216.91c-5.498-6.601-13.628-10.452-22.302-10.452c-16.024,0-29.079,13.047-29.079,29.079   s13.055,29.079,29.079,29.079c8.674,0,16.803-3.852,22.302-10.452h11.952v1.823c0,3.322,2.705,6.02,6.027,6.02h5.66v24.918h-7.395   c-2.558,0-4.851,1.624-5.689,4.043l-9.8,28.248h-13.472c-13.281,0-24.391,9.1-27.691,21.361h-51.107   c-50.366,0-91.338,40.965-91.338,91.316v44.176c-3.235,0.099-5.851,2.724-5.851,5.984v32.034c0,3.322,2.705,6.02,6.027,6.02h91.529   c3.322,0,6.027-2.698,6.027-6.02v-32.034c0-3.265-2.621-5.896-5.866-5.987v-31.721c0-6.571,5.336-11.923,11.908-11.923h38.555   c3.171,12.449,14.39,21.721,27.805,21.721h121.343c13.416,0,24.634-9.272,27.805-21.721h49.161   c0.418,7.974,6.907,14.37,14.974,14.37h16.745v15.414c0,10.225,8.321,18.545,18.538,18.545h25.007c3.322,0,6.027-2.698,6.027-6.02   V121.419C483.793,118.096,481.088,115.399,477.766,115.399z M119.736,333.409H40.261v-19.993h79.474V333.409z M175.409,245.724   h-37.576c-13.216,0-23.963,10.746-23.963,23.963v31.688H46.112v-44.14c0-43.714,35.562-79.276,79.283-79.276h50.013V245.724z    M234.889,67.466h-20.993c-2.029,0-3.925,1.022-5.028,2.712c-3.19,4.844-8.512,7.74-14.26,7.74   c-9.394,0-17.024-7.645-17.024-17.039s7.63-17.039,17.024-17.039c5.748,0,11.07,2.896,14.26,7.74   c1.103,1.691,2.999,2.712,5.028,2.712h20.993c3.322,0,6.027-2.698,6.027-6.02V45.84h47.279v2.433c0,3.322,2.705,6.02,6.027,6.02   h21.625c2.029,0,3.925-1.022,5.042-2.72c3.161-4.844,8.483-7.733,14.231-7.733c9.394,0,17.024,7.645,17.024,17.039   s-7.63,17.039-17.024,17.039c-5.748,0-11.07-2.889-14.231-7.733c-1.117-1.698-3.014-2.72-5.042-2.72h-21.625   c-3.322,0-6.027,2.698-6.027,6.02v1.823h-47.279v-1.823C240.917,70.163,238.212,67.466,234.889,67.466z M277.14,87.349v24.918   h-24.536V87.349H277.14z M237.433,124.308h58.893l7.027,20.251H230.42L237.433,124.308z M342.266,250.708   c0,9.225-7.498,16.737-16.73,16.737H204.193c-9.232,0-16.73-7.512-16.73-16.737v-77.365c0-9.232,7.498-16.745,16.73-16.745h17.759   h89.853h13.731c9.232,0,16.73,7.512,16.73,16.745V250.708z M402.349,245.724h-48.028v-67.765h48.028V245.724z M434.221,260.094   h-16.745c-1.691,0-3.073-1.389-3.073-3.087v-5.263v-79.805v-7.461c0-1.698,1.382-3.087,3.073-3.087h16.745V260.094z    M471.739,294.054h-18.979c-3.572,0-6.483-2.918-6.483-6.505v-21.434V155.371v-21.434c0-3.58,2.911-6.498,6.483-6.498h18.979   V294.054z"></path><path d="M80.851,363.009c-0.985-2.132-3.117-3.492-5.469-3.492c-2.337,0-4.469,1.36-5.469,3.484   c-0.059,0.147-6.983,15.002-14.833,26.161c-10.673,15.186-21.096,31.13-21.096,44.522c0,25.646,18.567,46.514,41.398,46.514   c22.816,0,41.384-20.868,41.384-46.514c0-13.393-10.423-29.336-21.096-44.522C87.849,378.034,80.91,363.156,80.851,363.009z    M75.382,468.159c-16.186,0-29.343-15.466-29.343-34.474c0-10.702,11.82-27.542,18.891-37.598   c3.955-5.623,7.63-11.974,10.452-17.208c2.808,5.234,6.483,11.584,10.438,17.208c7.071,10.056,18.891,26.896,18.891,37.598   C104.711,452.693,91.554,468.159,75.382,468.159z"></path><path d="M73.06,445.203c-4.94-2.051-8.13-6.873-8.13-12.283c0-3.322-2.705-6.02-6.027-6.02c-3.322,0-6.027,2.698-6.027,6.02   c0,10.291,6.116,19.479,15.568,23.411c0.75,0.309,1.529,0.456,2.308,0.456c2.352,0,4.601-1.397,5.557-3.712   C77.588,450.003,76.132,446.482,73.06,445.203z"></path></g></svg>